<?xml version="1.0" encoding="utf-8"?>
<svg xmlns="http://www.w3.org/2000/svg" xmlns:xlink="http://www.w3.org/1999/xlink"  x="0" y="0" width="1714.9267px" height="882.9109px" viewBox = " 0 0 1714.9267 882.9109"  style="enable-background:new 0 0 1714.9267 882.9109; " preserveAspectRatio="xMinYMin meet"  xml:space="preserve" >
<g id="Default">
<path id="734f2d34-77f7-4a07-9b63-6630f84053cd" d ="M 857.4634 100 A 20 20 0 1 0 857.4634 140 A 20 20 0 1 0 857.4634 100 Z " fill-rule="evenodd" class="cls-1720279827" >  </path>
<path id ="57b282da-b2ad-4c37-a0b0-84b6a34438df" d = " M 865.2825 286.8616  C 843.8114 296.0428 822.6003 309.1005 803.5965 325.7913  C 794.0946 334.1367 785.1444 343.3903 776.9771 353.3972  C 768.8098 363.4041 761.4253 374.1643 754.9979 385.4711  C 748.5705 396.778 743.1001 408.6317 738.6804 420.7637  C 734.2607 432.8957 730.8917 445.3061 728.5806 457.7539  C 726.2695 470.2017 725.0164 482.687 724.7292 494.8663  C 724.442 507.0457 725.1207 518.9191 726.678 530.6762  C 728.2353 542.4333 730.6713 554.074 734.1194 565.7586  C 737.5675 577.4431 742.0279 589.1716 747.5001 600.5885  C 752.9724 612.0054 759.4565 623.1108 766.882 633.6736  C 774.3076 644.2364 782.6745 654.2565 791.8251 663.5008  C 800.9758 672.7452 810.9102 681.2137 821.3968 688.7464  C 831.8834 696.2792 842.9222 702.8761 854.2828 708.4643  C 865.6434 714.0525 877.3257 718.6321 888.9746 722.1991  C 900.6234 725.7661 912.2387 728.3204 923.9793 729.9974  C 935.7199 731.6744 947.5859 732.474 959.7675 732.3109  C 971.9491 732.1478 984.4465 731.022 996.9173 728.8377  C 1009.388 726.6535 1021.8323 723.4108 1034.0084 719.1151  C 1046.1845 714.8195 1058.0925 709.4708 1069.4653 703.158  C 1080.8381 696.8451 1091.6757 689.5681 1101.7614 681.5066  C 1111.8472 673.445 1121.1811 664.599 1129.6308 655.1707  C 1138.0805 645.7424 1145.6459 635.7318 1152.2275 625.4796  C 1158.8091 615.2275 1164.4068 604.7337 1169.193 593.8835  C 1173.9792 583.0333 1177.954 571.8267 1181.0893 560.0512  C 1184.2246 548.2756 1186.5203 535.931 1187.7847 523.34  C 1188.4169 517.0445 1188.7913 510.6874 1188.9031 504.2889  C 1189.0148 497.8903 1188.864 491.4502 1188.4418 485.006  C 1188.0196 478.5617 1187.326 472.1133 1186.3611 465.6938  C 1185.3962 459.2743 1184.16 452.8837 1182.6573 446.5565  C 1181.1547 440.2292 1179.3857 433.9653 1177.3611 427.7974  C 1175.3365 421.6294 1173.0563 415.5575 1170.5365 409.6118  C 1168.0167 403.6662 1165.2572 397.8468 1162.2786 392.1805  C 1160.7893 389.3474 1159.2452 386.5525 1157.6493 383.7987  C 1156.0534 381.045 1154.4058 378.3324 1152.7093 375.6637  C 1151.0129 372.995 1149.2678 370.3701 1147.4772 367.7915  C 1145.6866 365.2129 1143.8506 362.6805 1141.9725 360.1964  C 1140.0944 357.7124 1138.1743 355.2766 1136.2156 352.891  C 1135.2362 351.6981 1134.2472 350.5178 1133.2491 349.3502  C 1132.2509 348.1826 1131.2435 347.0277 1130.2274 345.8857  C 1129.2112 344.7437 1128.1864 343.6146 1127.1532 342.4985  C 1126.12 341.3824 1125.0785 340.2794 1124.0292 339.1895  C 1122.9798 338.0996 1121.9226 337.0229 1120.8581 335.9595  C 1119.7935 334.8961 1118.7215 333.8459 1117.6425 332.8092  C 1117.103 332.2908 1116.5618 331.7758 1116.0189 331.2641  C 1115.476 330.7524 1114.9314 330.2441 1114.3852 329.7391  C 1113.839 329.2342 1113.2912 328.7326 1112.7418 328.2344  C 1112.1924 327.7361 1111.6414 327.2413 1111.0889 326.7498  C 1110.5364 326.2584 1109.9825 325.7704 1109.4269 325.2855  C 1109.1491 325.0431 1108.8709 324.8015 1108.5926 324.5611  C 1108.3144 324.3206 1108.0361 324.0813 1107.7562 323.8417  C 1107.4762 323.602 1107.1945 323.3621 1106.9176 323.1273  C 1106.6407 322.8925 1106.3686 322.6627 1106.077 322.4181  C 1105.7854 322.1734 1105.4743 321.9138 1105.2604 321.7354  C 1105.1534 321.6462 1105.0708 321.5772 1104.7343 321.2995  C 1104.566 321.1606 1104.3343 320.9695 1104.601 321.1891  C 1104.8678 321.4087 1105.6331 322.039 1100.9859 318.2112  C 1093.0845 311.7029 1069.5364 292.3069 1049.8142 276.0622  C 1030.092 259.8175 1014.1957 246.724 995.2387 231.1096  C 951.92 249.6936 908.6012 268.2776 865.2825 286.8616 "  class="cls-1593269247" >  </path>
<path id ="0cdc9225-da85-4b15-b253-b9d2c425c72b" d = " M 849.6442 286.8616  C 871.1153 296.0428 892.3264 309.1005 911.3302 325.7913  C 920.8321 334.1367 929.7823 343.3903 937.9496 353.3972  C 946.1169 363.4041 953.5014 374.1643 959.9288 385.4711  C 966.3562 396.778 971.8266 408.6317 976.2463 420.7637  C 980.666 432.8957 984.035 445.3061 986.3461 457.7539  C 988.6572 470.2017 989.9103 482.687 990.1975 494.8663  C 990.4847 507.0457 989.806 518.9191 988.2487 530.6762  C 986.6914 542.4333 984.2554 554.074 980.8073 565.7586  C 977.3592 577.4431 972.8988 589.1716 967.4266 600.5885  C 961.9543 612.0054 955.4702 623.1108 948.0447 633.6736  C 940.6192 644.2364 932.2522 654.2565 923.1016 663.5008  C 913.9509 672.7452 904.0165 681.2137 893.5299 688.7464  C 883.0433 696.2792 872.0045 702.8761 860.6439 708.4643  C 849.2834 714.0525 837.601 718.6321 825.9521 722.1991  C 814.3033 725.7661 802.688 728.3204 790.9474 729.9974  C 779.2068 731.6744 767.3408 732.474 755.1592 732.3109  C 742.9776 732.1478 730.4802 731.022 718.0095 728.8377  C 705.5387 726.6535 693.0944 723.4108 680.9183 719.1151  C 668.7422 714.8195 656.8342 709.4708 645.4614 703.158  C 634.0886 696.8451 623.251 689.5681 613.1653 681.5066  C 603.0795 673.445 593.7456 664.599 585.2959 655.1707  C 576.8462 645.7424 569.2808 635.7318 562.6992 625.4796  C 556.1176 615.2275 550.52 604.7337 545.7337 593.8835  C 540.9475 583.0333 536.9727 571.8267 533.8374 560.0512  C 530.7021 548.2756 528.4064 535.931 527.142 523.34  C 526.5098 517.0445 526.1354 510.6874 526.0237 504.2889  C 525.9119 497.8903 526.0627 491.4502 526.4849 485.006  C 526.9072 478.5617 527.6007 472.1133 528.5656 465.6938  C 529.5305 459.2743 530.7667 452.8837 532.2694 446.5565  C 533.772 440.2292 535.541 433.9653 537.5656 427.7974  C 539.5902 421.6294 541.8704 415.5575 544.3902 409.6118  C 546.9101 403.6662 549.6695 397.8468 552.6481 392.1805  C 554.1374 389.3474 555.6815 386.5525 557.2774 383.7987  C 558.8733 381.045 560.5209 378.3324 562.2174 375.6637  C 563.9138 372.995 565.6589 370.3701 567.4495 367.7915  C 569.2401 365.2129 571.0761 362.6805 572.9542 360.1964  C 574.8323 357.7124 576.7524 355.2766 578.7111 352.891  C 579.6905 351.6981 580.6795 350.5178 581.6776 349.3502  C 582.6758 348.1826 583.6832 347.0277 584.6993 345.8857  C 585.7155 344.7437 586.7403 343.6146 587.7735 342.4985  C 588.8067 341.3824 589.8482 340.2794 590.8975 339.1895  C 591.9469 338.0996 593.0041 337.0229 594.0687 335.9595  C 595.1332 334.8961 596.2052 333.8459 597.2842 332.8092  C 597.8237 332.2908 598.3649 331.7758 598.9078 331.2641  C 599.4507 330.7524 599.9953 330.2441 600.5415 329.7391  C 601.0877 329.2342 601.6355 328.7326 602.1849 328.2344  C 602.7343 327.7361 603.2853 327.2413 603.8378 326.7498  C 604.3903 326.2584 604.9442 325.7704 605.4998 325.2855  C 605.7776 325.0431 606.0558 324.8015 606.3341 324.5611  C 606.6123 324.3206 606.8906 324.0813 607.1705 323.8417  C 607.4505 323.602 607.7322 323.3621 608.0091 323.1273  C 608.286 322.8925 608.5581 322.6627 608.8497 322.4181  C 609.1413 322.1734 609.4524 321.9138 609.6663 321.7354  C 609.7733 321.6462 609.8559 321.5772 610.1925 321.2995  C 610.3607 321.1606 610.5924 320.9695 610.3257 321.1891  C 610.0589 321.4087 609.2936 322.039 613.9408 318.2112  C 621.8423 311.7029 645.3903 292.3069 665.1125 276.0622  C 684.8347 259.8175 700.731 246.724 719.688 231.1096  C 763.0068 249.6936 806.3255 268.2776 849.6442 286.8616 "  class="cls-1593269247" >  </path>
<path id ="22409898-2002-4cf0-be5b-2aa43ffd8558" d = " M 756.0792 285.3791  C 742.4158 295.2881 729.5595 307.7902 718.752 322.4219  C 713.3483 329.7378 708.4568 337.5861 704.206 345.8316  C 699.9552 354.0771 696.3452 362.7198 693.4617 371.6  C 690.5782 380.4803 688.4211 389.5981 687.0168 398.7647  C 685.6124 407.9312 684.9608 417.1466 685.0368 426.2509  C 685.1128 435.3553 685.9164 444.3487 687.3456 453.0138  C 688.7747 461.6789 690.8293 470.0157 693.4765 478.1599  C 696.1237 486.304 699.3635 494.2556 703.3023 502.1049  C 707.241 509.9543 711.8788 517.7014 717.1704 525.1105  C 722.462 532.5197 728.4076 539.5908 734.9329 546.1797  C 741.4583 552.7686 748.5634 558.8753 756.118 564.3633  C 763.6726 569.8514 771.6766 574.7209 779.9599 578.8898  C 788.2432 583.0588 796.8059 586.5273 805.4879 589.2695  C 814.1699 592.0116 822.9712 594.0274 831.6537 595.3468  C 840.3362 596.6662 848.8998 597.2893 857.4634 597.2893  C 866.027 597.2893 874.5906 596.6662 883.273 595.3468  C 891.9555 594.0274 900.7568 592.0116 909.4388 589.2695  C 918.1208 586.5273 926.6835 583.0588 934.9668 578.8898  C 943.2501 574.7209 951.2541 569.8514 958.8087 564.3633  C 966.3633 558.8753 973.4684 552.7686 979.9938 546.1797  C 986.5191 539.5907 992.4647 532.5196 997.7563 525.1105  C 1003.0479 517.7015 1007.6856 509.9544 1011.6244 502.1049  C 1015.5632 494.2555 1018.8031 486.3035 1021.4502 478.1599  C 1024.0972 470.0162 1026.1514 461.6809 1027.5811 453.0138  C 1029.0109 444.3467 1029.8163 435.3478 1029.8915 426.2477  C 1029.929 421.6976 1029.7841 417.1222 1029.4547 412.5352  C 1029.1254 407.9482 1028.6116 403.3495 1027.91 398.7647  C 1027.2083 394.1799 1026.3188 389.609 1025.2435 385.0741  C 1024.1681 380.5392 1022.9069 376.0403 1021.465 371.6  C 1020.0231 367.1598 1018.4006 362.7783 1016.6064 358.4768  C 1014.8122 354.1752 1012.8462 349.9537 1010.7207 345.8316  C 1008.5952 341.7095 1006.3101 337.6868 1003.8804 333.7807  C 1002.6655 331.8276 1001.4145 329.9036 1000.1294 328.0106  C 998.8444 326.1176 997.5253 324.2555 996.1743 322.4261  C 994.8234 320.5966 993.4405 318.7998 992.0281 317.037  C 990.6157 315.2743 989.1738 313.5456 987.7046 311.8524  C 986.2354 310.1591 984.739 308.5012 983.2179 306.8798  C 982.4573 306.069 981.6905 305.2674 980.9178 304.475  C 980.1452 303.6826 979.3666 302.8995 978.5824 302.1256  C 977.7983 301.3518 977.0085 300.5872 976.2135 299.8321  C 975.4185 299.077 974.6182 298.3313 973.813 297.5951  C 973.0077 296.8589 972.1975 296.1321 971.3826 295.415  C 970.5677 294.6978 969.7481 293.9902 968.9242 293.2922  C 968.5122 292.9432 968.0992 292.5966 967.6851 292.2524  C 967.271 291.9082 966.8558 291.5664 966.4397 291.227  C 966.0235 290.8876 965.6063 290.5506 965.1882 290.2161  C 964.77 289.8815 964.3509 289.5494 963.9308 289.2196  C 963.5108 288.8899 963.0897 288.5626 962.6679 288.2377  C 962.457 288.0753 962.2459 287.9136 962.0344 287.7522  C 961.8228 287.5908 961.6107 287.4299 961.3995 287.2703  C 961.1883 287.1108 960.978 286.9526 960.7634 286.7921  C 960.5488 286.6315 960.3298 286.4686 960.126 286.3175  C 959.9222 286.1663 959.7335 286.0269 959.4665 285.8313  C 959.333 285.7335 959.1799 285.6217 959.2301 285.6578  C 959.2551 285.6758 959.331 285.7308 959.0076 285.4956  C 958.6842 285.2605 957.9615 284.7352 954.8009 282.4377  C 947.3319 277.0086 926.2487 261.6837 908.1554 248.5319  C 890.0621 235.3802 874.9587 224.4018 857.4634 211.6848  C 823.6686 236.2495 789.8739 260.8143 756.0792 285.3791 "  class="cls-1593269247" >  </path>
<path id ="5e292c35-03e6-475a-8ff6-d74cab482eb2" d = " M 857.4634 710  C 883.0075 721.2228 910.3045 730.0418 938.5595 735.9052  C 966.8145 741.7686 996.0276 744.6764 1025.2123 744.4153  C 1054.397 744.1542 1083.5534 740.7242 1111.699 734.3562  C 1139.8446 727.9881 1166.9794 718.6821 1192.3186 707.0041  C 1225.634 693.9948 1261.9952 684.9542 1299.6626 681.0883  C 1318.4963 679.1553 1337.6565 678.516 1356.8601 679.2299  C 1376.0637 679.9439 1395.3106 682.011 1414.3157 685.4246  C 1433.3207 688.8382 1452.0839 693.5982 1470.3356 699.6118  C 1488.5873 705.6255 1506.3274 712.8926 1523.3112 721.2589  C 1557.2788 737.9916 1588.221 759.1209 1614.9267 782.9109 "  class="cls-1593269247" >  </path>
<path id ="1ee46cea-a2d8-4253-9bcc-374bc0d8d2a4" d = " M 857.4634 710  C 880.8999 720.5429 906.4464 728.5003 933.0526 733.0905  C 946.3557 735.3856 959.9238 736.8389 973.5856 737.4039  C 987.2475 737.9689 1001.0031 737.6456 1014.68 736.424  C 1028.3568 735.2025 1041.9549 733.0826 1055.2976 730.1062  C 1068.6403 727.1299 1081.7277 723.297 1094.4219 718.6767  C 1107.1162 714.0564 1119.4174 708.6488 1131.1435 702.6064  C 1142.8695 696.5639 1154.0205 689.8865 1164.726 682.5585  C 1175.4315 675.2304 1185.6916 667.2516 1195.568 658.507  C 1205.4444 649.7623 1214.9371 640.2518 1223.838 630.0898  C 1232.7389 619.9279 1241.0481 609.1146 1248.6512 597.7533  C 1256.2543 586.392 1263.1514 574.4827 1269.2396 562.1749  C 1275.3278 549.8671 1280.6071 537.1607 1285.0243 524.2203  C 1289.4416 511.28 1292.9968 498.1056 1295.6714 484.8735  C 1301.0206 458.4095 1302.8473 431.7148 1301.5002 406.0514 "  class="cls-1593269247" >  </path>
<path id ="f3f2b208-e01a-4b4d-b940-b750d1869b76" d = " M 857.4634 710  C 831.9193 721.2228 804.6223 730.0418 776.3672 735.9052  C 748.1122 741.7686 718.8991 744.6764 689.7144 744.4153  C 660.5297 744.1542 631.3733 740.7242 603.2277 734.3562  C 575.0821 727.9881 547.9473 718.6821 522.6081 707.0041  C 489.2927 693.9948 452.9315 684.9542 415.2641 681.0883  C 396.4304 679.1553 377.2702 678.516 358.0666 679.2299  C 338.863 679.9439 319.6161 682.011 300.611 685.4246  C 281.606 688.8382 262.8428 693.5982 244.5911 699.6118  C 226.3394 705.6255 208.5993 712.8926 191.6155 721.2589  C 157.6479 737.9916 126.7057 759.1209 100 782.9109 "  class="cls-1593269247" >  </path>
<path id ="6dac547a-0e4a-428d-a243-c94326adfedc" d = " M 857.4634 710  C 834.0268 720.5429 808.4803 728.5003 781.8741 733.0905  C 768.571 735.3856 755.0029 736.8389 741.3411 737.4039  C 727.6792 737.9689 713.9236 737.6456 700.2467 736.424  C 686.5699 735.2025 672.9718 733.0826 659.6291 730.1062  C 646.2864 727.1299 633.199 723.297 620.5048 718.6767  C 607.8105 714.0564 595.5093 708.6488 583.7832 702.6064  C 572.0572 696.5639 560.9062 689.8865 550.2007 682.5585  C 539.4952 675.2304 529.2351 667.2516 519.3587 658.507  C 509.4823 649.7623 499.9897 640.2518 491.0887 630.0898  C 482.1878 619.9279 473.8786 609.1146 466.2755 597.7533  C 458.6724 586.392 451.7753 574.4827 445.6871 562.1749  C 439.5989 549.8671 434.3196 537.1607 429.9024 524.2203  C 425.4851 511.28 421.9299 498.1056 419.2553 484.8735  C 413.9061 458.4095 412.0794 431.7148 413.4265 406.0514 "  class="cls-1593269247" >  </path>
</g>
<defs>
<style> .cls-1720279827{stroke:none; fill:#FFFFFF ; fill-opacity:1; } </style>
<style> .cls-1593269247{stroke:#FFFFFF ; stroke-opacity:1; stroke-width:35; stroke-linecap:round; stroke-linejoin:round; fill:none; } </style>
</defs>
</svg>